<svg width="164" height="74" viewBox="0 0 164 74" fill="none" xmlns="http://www.w3.org/2000/svg">
<g clip-path="url(#clip0_7640_13422)">
<path d="M112.378 32.0514C112.378 44.6216 97.8255 63.4379 81.7398 63.4379C65.6542 63.4379 52.6143 53.2478 52.6143 40.6776C52.6143 28.1075 64.4699 29.8567 80.5555 29.8567C96.6412 29.8567 112.378 19.4812 112.378 32.0514Z" fill="url(#paint0_linear_7640_13422)"/>
<ellipse cx="80.2169" cy="56.8859" rx="24.8595" ry="6.55237" fill="white" style="fill:white;fill-opacity:1;"/>
<path d="M80.2168 50.0337C87.0997 50.0337 93.3419 50.7684 97.8721 51.9624C100.135 52.5588 101.987 53.2742 103.281 54.0806C104.56 54.8772 105.377 55.8177 105.377 56.8862C105.377 57.9546 104.559 58.8944 103.281 59.6909C101.987 60.4973 100.135 61.2127 97.8721 61.8091C93.3419 63.0031 87.0997 63.7378 80.2168 63.7378C73.3341 63.7378 67.0926 63.0031 62.5625 61.8091C60.2997 61.2127 58.4465 60.4974 57.1523 59.6909C55.8742 58.8944 55.0578 57.9546 55.0576 56.8862C55.0576 55.8177 55.874 54.8772 57.1523 54.0806C58.4465 53.2741 60.2997 52.5588 62.5625 51.9624C67.0926 50.7684 73.3342 50.0337 80.2168 50.0337Z" stroke="#0E0E0E" stroke-opacity="0.66" style="stroke:#0E0E0E;stroke:color(display-p3 0.0543 0.0543 0.0543);stroke-opacity:0.66;" stroke-width="0.6"/>
<ellipse cx="80.2169" cy="57.9263" rx="24.8595" ry="5.8584" fill="#9B9B9B" style="fill:#9B9B9B;fill:color(display-p3 0.6078 0.6078 0.6078);fill-opacity:1;"/>
<path d="M80.2168 52.3179C87.0681 52.3179 93.2634 52.9723 97.7383 54.0269C99.9776 54.5546 101.772 55.1801 103.001 55.8647C104.251 56.5613 104.826 57.2677 104.826 57.9263C104.826 58.5849 104.251 59.2913 103.001 59.9878C101.772 60.6725 99.9776 61.2979 97.7383 61.8257C93.2634 62.8802 87.0681 63.5347 80.2168 63.5347C73.3657 63.5347 67.1712 62.8802 62.6963 61.8257C60.4568 61.2979 58.6616 60.6725 57.4326 59.9878C56.1826 59.2913 55.6074 58.5848 55.6074 57.9263C55.6074 57.2677 56.1826 56.5612 57.4326 55.8647C58.6616 55.18 60.4568 54.5546 62.6963 54.0269C67.1712 52.9724 73.3657 52.3179 80.2168 52.3179Z" stroke="#0E0E0E" stroke-opacity="0.5" style="stroke:#0E0E0E;stroke:color(display-p3 0.0543 0.0543 0.0543);stroke-opacity:0.5;" stroke-width="0.5"/>
<path d="M63.3359 48.5487C77.8777 49.5014 110.298 38.9776 93.2454 38.9776C51.7743 38.9776 88.293 32.8576 88.293 24.5483" stroke="#A6A3A3" style="stroke:#A6A3A3;stroke:color(display-p3 0.6514 0.6385 0.6385);stroke-opacity:1;" stroke-width="0.5" stroke-dasharray="0.38 0.38"/>
<g opacity="0.54">
<path d="M90.1892 22.5481C91.2979 22.4673 92.3643 22.2966 93.4489 22.2025C96.0589 21.9777 98.2618 21.5677 100.204 20.4048C102.028 19.3107 102.573 16.7338 102.567 14.8607C102.57 15.2046 99.707 16.1393 99.2156 16.2464C98.1577 16.4736 97.0274 16.5264 95.9694 16.8245C92.3933 17.8259 91.8485 20.2241 90.1892 22.5481Z" fill="url(#paint1_linear_7640_13422)"/>
<path d="M90.0537 22.6023C94.0369 21.1592 103.109 16.8287 103 14.0073" stroke="#E97A7A" style="stroke:#E97A7A;stroke:color(display-p3 0.9137 0.4784 0.4784);stroke-opacity:1;" stroke-width="0.5" stroke-linecap="round"/>
</g>
<path d="M65.6232 27.5124C65.4159 26.9657 65.1513 26.4427 64.9379 25.9084C64.4256 24.6225 63.8387 23.5438 62.7592 22.6169C61.7441 21.7467 59.8629 21.5548 58.55 21.6142C58.7908 21.6025 59.8353 22.992 59.9771 23.2322C60.2803 23.7493 60.4709 24.3074 60.8237 24.8224C62.0119 26.5633 63.7679 26.7607 65.6232 27.5124Z" fill="#EEE4BD" style="fill:#EEE4BD;fill:color(display-p3 0.9330 0.8947 0.7415);fill-opacity:1;"/>
<g clip-path="url(#clip1_7640_13422)">
<path d="M68.1542 30.1628C68.7305 30.687 67.2681 32.364 67.225 32.9998C67.1818 33.6357 68.0169 34.3384 67.9189 34.7586C67.8484 35.0561 67.2289 35.5729 67.0211 35.9373C66.2095 37.3726 67.915 37.8782 67.766 38.6851C67.6641 39.2466 66.5937 39.6556 66.8721 40.7042C67.0525 41.3809 68.4051 42.1952 68.558 42.8347C68.6521 43.24 68.3032 43.5821 68.4835 43.98C68.5462 44.1138 70.189 46.1478 70.3537 46.2965C71.9847 47.7764 74.6978 46.6832 74.6586 49.4347C74.588 54.1533 72.5336 58.6487 66.7349 58.0463C63.0573 57.6633 60.8499 51.3831 60.2461 48.4643C59.1248 43.0355 59.4698 36.9226 63.5081 32.6057C64.1864 31.8806 67.1701 29.2629 68.1581 30.159L68.1542 30.1628Z" fill="white" stroke="#0E0E0E" stroke-opacity="0.66" style="fill:white;fill-opacity:1;stroke:#0E0E0E;stroke:color(display-p3 0.0543 0.0543 0.0543);stroke-opacity:0.66;" stroke-width="0.6" stroke-linejoin="round"/>
<path d="M96.1476 37.1993C96.7815 37.1423 98.3528 38.2849 98.8245 38.718C103.16 42.6815 102.844 50.1012 100.57 54.9765C99.3022 57.6919 97.6919 59.4386 94.2818 58.4669C91.6048 57.7033 90.5653 54.1929 90.7996 51.8251C90.9619 50.2038 91.9293 50.7623 93.1581 50.2294C93.8041 49.9502 95.2492 48.4173 95.4205 47.836C95.5196 47.4998 95.3664 47.1407 95.5286 46.8045C95.6909 46.4683 96.6012 45.8072 96.7394 45.3884C96.9407 44.7815 96.0574 44.3085 96.0604 43.7528C96.0604 43.2485 96.8656 42.8752 96.7995 42.2085C96.7485 41.6842 96.0094 41.2711 95.9252 40.8835C95.8411 40.496 96.3729 40.0886 96.3579 39.5073C96.3368 38.7864 94.9518 37.3076 96.1476 37.1993Z" fill="#FFBEBE" stroke="#0E0E0E" stroke-opacity="0.66" style="fill:#FFBEBE;fill:color(display-p3 1.0000 0.7449 0.7449);fill-opacity:1;stroke:#0E0E0E;stroke:color(display-p3 0.0543 0.0543 0.0543);stroke-opacity:0.66;" stroke-width="0.6" stroke-linejoin="round"/>
<path d="M70.0688 32.5851C71.2097 32.161 73.1729 35.3575 73.5488 36.1649C75.0911 39.482 75.5189 43.6825 73.8737 47.0814C71.7574 47.2187 70.4913 46.5551 69.2993 44.9474C69.4665 43.9195 70.8589 41.7931 70.5241 40.877C70.3961 40.5216 69.8405 40.2011 69.7847 39.8259C69.7171 39.3584 70.6831 38.7944 70.6516 37.9775C70.6267 37.2463 70.0836 36.8822 70.0115 36.4117C69.9339 35.9082 70.501 35.4309 70.5106 34.9728C70.5263 34.2234 69.164 32.9237 70.0656 32.5894L70.0688 32.5851Z" fill="white" stroke="#0E0E0E" stroke-opacity="0.66" style="fill:white;fill-opacity:1;stroke:#0E0E0E;stroke:color(display-p3 0.0543 0.0543 0.0543);stroke-opacity:0.66;" stroke-width="0.6" stroke-linejoin="round"/>
<path d="M91.7929 38.7389C92.6525 38.4084 92.0721 40.0602 92.2152 40.5828C92.3423 41.0469 92.8105 41.1956 92.8789 41.3913C92.9768 41.6839 92.5264 42.3823 92.6475 42.7956C92.7687 43.2088 93.6 43.6677 93.6747 43.9946C93.7441 44.3021 93.4806 44.5826 93.4734 44.8818C93.4472 45.7915 94.856 46.8396 95.2607 47.6585C94.5628 48.954 94.0151 49.879 92.3742 50.1779C90.1979 48.0552 89.6271 44.0197 90.3958 41.1637C90.5455 40.6096 91.2425 38.947 91.7925 38.736L91.7929 38.7389Z" fill="white" stroke="#0E0E0E" stroke-opacity="0.66" style="fill:white;fill-opacity:1;stroke:#0E0E0E;stroke:color(display-p3 0.0543 0.0543 0.0543);stroke-opacity:0.66;" stroke-width="0.6" stroke-linejoin="round"/>
<path d="M102.612 35.7908L103.837 34.637" stroke="#0E0E0E" stroke-opacity="0.66" style="stroke:#0E0E0E;stroke:color(display-p3 0.0543 0.0543 0.0543);stroke-opacity:0.66;" stroke-width="0.6" stroke-linecap="round"/>
<path d="M103.404 37.3299L105.033 36.8608" stroke="#0E0E0E" stroke-opacity="0.66" style="stroke:#0E0E0E;stroke:color(display-p3 0.0543 0.0543 0.0543);stroke-opacity:0.66;" stroke-width="0.6" stroke-linecap="round"/>
<path d="M103.424 38.8507L105.033 39.0794" stroke="#0E0E0E" stroke-opacity="0.66" style="stroke:#0E0E0E;stroke:color(display-p3 0.0543 0.0543 0.0543);stroke-opacity:0.66;" stroke-width="0.6" stroke-linecap="round"/>
<mask id="mask0_7640_13422" style="mask-type:alpha" maskUnits="userSpaceOnUse" x="55" y="51" width="51" height="13">
<path d="M80.1729 52.1798C87.0215 52.1798 93.2124 52.8344 97.6826 53.8878C99.9198 54.415 101.71 55.0384 102.933 55.7198C104.181 56.4155 104.732 57.1098 104.732 57.7384C104.732 58.367 104.181 59.0613 102.933 59.757C101.71 60.4384 99.9198 61.0618 97.6826 61.589C93.2124 62.6424 87.0215 63.297 80.1729 63.297C73.3243 63.297 67.1332 62.6424 62.6631 61.589C60.4259 61.0617 58.6362 60.4384 57.4131 59.757C56.1645 59.0613 55.6133 58.367 55.6133 57.7384C55.6133 57.1098 56.1645 56.4155 57.4131 55.7198C58.6362 55.0384 60.4259 54.4151 62.6631 53.8878C67.1332 52.8344 73.3243 52.1798 80.1729 52.1798Z" fill="#848484" stroke="#0E0E0E" style="fill:#848484;fill:color(display-p3 0.5169 0.5169 0.5169);fill-opacity:1;stroke:#0E0E0E;stroke:color(display-p3 0.0549 0.0549 0.0549);stroke-opacity:1;" stroke-width="0.6"/>
</mask>
<g mask="url(#mask0_7640_13422)">
<path d="M91.2916 57.1123C92.3342 58.708 94.1128 59.2323 96.0116 59.295C96.234 59.4146 96.0026 59.7708 95.9275 59.9332C95.0051 61.9135 88.5307 67.3328 87.7886 64.6971C87.5302 63.7739 90.2701 57.5625 91.2886 57.1095L91.2916 57.1123Z" fill="white" stroke="#0E0E0E" stroke-opacity="0.66" style="fill:white;fill-opacity:1;stroke:#0E0E0E;stroke:color(display-p3 0.0543 0.0543 0.0543);stroke-opacity:0.66;" stroke-width="0.6" stroke-linejoin="round"/>
<path d="M77.8675 65.3408C75.8523 67.5673 67.767 61.7186 67.4967 58.9672C70.0054 59.0232 72.4157 58.0333 73.7502 55.9788C75.356 57.1705 79.3381 63.7133 77.8675 65.3408Z" fill="white" stroke="#0E0E0E" stroke-opacity="0.66" style="fill:white;fill-opacity:1;stroke:#0E0E0E;stroke:color(display-p3 0.0543 0.0543 0.0543);stroke-opacity:0.66;" stroke-width="0.6" stroke-linejoin="round"/>
</g>
</g>
</g>
<defs>
<linearGradient id="paint0_linear_7640_13422" x1="55.5366" y1="38.5744" x2="112.378" y2="37.6243" gradientUnits="userSpaceOnUse">
<stop stop-color="#EDF8FF" style="stop-color:#EDF8FF;stop-color:color(display-p3 0.9287 0.9727 1.0000);stop-opacity:1;"/>
<stop offset="1" stop-color="#FFE8E8" style="stop-color:#FFE8E8;stop-color:color(display-p3 1.0000 0.9113 0.9113);stop-opacity:1;"/>
</linearGradient>
<linearGradient id="paint1_linear_7640_13422" x1="98.2605" y1="13.5006" x2="94.9301" y2="24.0455" gradientUnits="userSpaceOnUse">
<stop stop-color="#E16A6A" style="stop-color:#E16A6A;stop-color:color(display-p3 0.8826 0.4139 0.4139);stop-opacity:1;"/>
<stop offset="1" stop-color="#FFA7A7" style="stop-color:#FFA7A7;stop-color:color(display-p3 1.0000 0.6546 0.6546);stop-opacity:1;"/>
</linearGradient>
<clipPath id="clip0_7640_13422">
<rect width="164" height="74" fill="white" style="fill:white;fill-opacity:1;"/>
</clipPath>
<clipPath id="clip1_7640_13422">
<rect width="57.48" height="39.1909" fill="white" style="fill:white;fill-opacity:1;" transform="translate(51.9678 25.2393)"/>
</clipPath>
</defs>
</svg>
